Coordinates
version=1
nRows=17
nColumns=36
inDegrees=yes

Units are S.I. units (second, meters, Newtons, ...)
If the header above contains a line with 'inDegrees', this indicates whether rotational values are in degrees (yes) or radians (no).

endheader
time	pelvis_tilt	pelvis_list	pelvis_rotation	pelvis_tx	pelvis_ty	pelvis_tz	hip_flexion_r	hip_adduction_r	hip_rotation_r	knee_angle_r	knee_angle_r_beta	ankle_angle_r	subtalar_angle_r	mtp_angle_r	hip_flexion_l	hip_adduction_l	hip_rotation_l	knee_angle_l	knee_angle_l_beta	ankle_angle_l	subtalar_angle_l	mtp_angle_l	lumbar_extension	lumbar_bending	lumbar_rotation	arm_flex_r	arm_add_r	arm_rot_r	elbow_flex_r	pro_sup_r	arm_flex_l	arm_add_l	arm_rot_l	elbow_flex_l	pro_sup_l
      2.85000000	    -12.43701368	      0.10470992	     -8.50260161	      0.31595253	      0.96441838	     -0.10347808	     21.96906837	     -5.34160405	      0.28038557	      9.17424042	      0.16012070	      4.59682864	      0.32840603	     -7.49999987	     17.81285276	      3.32888198	     -6.46513733	      7.97131692	      0.13912573	      9.26752161	      1.97113776	     -7.49999987	      1.95864720	     -4.53814618	      3.69268099	     18.63470333	    -19.65746244	     59.99894899	    147.71503815	     94.01241824	      7.48854863	    -31.24375872	     50.30552186	    144.66649508	     97.71561517
      2.86666670	    -12.63141039	      0.19050342	     -8.45977972	      0.30268403	      0.95978778	     -0.10860100	     22.97016542	     -5.73005515	      0.29204200	      9.80130683	      0.17106508	      4.63490232	      0.26061343	     -7.49999987	     18.87901726	      3.44334783	     -5.96852623	      9.12490342	      0.15925961	      9.91929722	      1.50588555	     -7.49999987	      1.49382500	     -4.42188973	      3.38003270	     19.42176496	    -19.78227108	     60.02276681	    147.76747719	     94.06583197	      8.24587077	    -30.65547768	     50.04776624	    144.27884450	     97.65722899
      2.88333330	    -12.78378036	      0.29535699	     -8.50278135	      0.30357928	      0.95586609	     -0.10772754	     23.77559899	     -6.06098263	      0.29042915	     10.19581791	      0.17795059	      4.81204700	      0.25317404	     -7.49999987	     19.81743960	      3.52237777	     -5.52529560	     10.19583709	      0.17795093	     10.50675049	      0.94661307	     -7.49999987	      0.96072845	     -4.44649249	      3.30227142	     20.05294512	    -20.22178889	     60.12023103	    147.81749932	     94.15960617	      8.49448640	    -30.49634154	     49.91403558	    143.36898617	     97.64390595
      2.90000000	    -12.92571005	      0.37983542	     -8.51719670	      0.30402753	      0.95270415	     -0.10789992	     24.47587082	     -6.39204781	      0.39157956	     10.44538389	      0.18230634	      5.06983113	      0.34990048	     -7.49999987	     20.63149040	      3.60308947	     -5.07888803	     11.14396608	      0.19449890	     10.90771065	      0.40111144	     -7.49999987	      0.48640872	     -4.36522681	      3.28231488	     20.38259750	    -20.57118015	     60.33831603	    147.74270196	     94.26309375	      8.62055338	    -30.24628945	     49.81089496	    142.65026165	     97.63363794
      2.91666670	    -13.30225463	      0.47778109	     -8.54006835	      0.29874792	      0.95065011	     -0.11412605	     25.77443225	     -6.82089425	      0.26517349	     11.08304623	      0.19343565	      5.35652573	      0.57878271	     -7.49999987	     21.85209771	      3.78601653	     -4.35748038	     12.30485541	      0.21476024	     11.44645497	     -0.61062013	     -7.49999987	      0.32753526	     -4.14718394	      3.36735537	     20.80046583	    -21.41263647	     60.87157664	    147.62420813	     94.52367324	      8.63328521	    -30.04239888	     49.96524925	    142.10725071	     97.63793666
      2.93333330	    -13.88260060	      0.74587207	     -8.66320183	      0.29164547	      0.94261034	     -0.11213041	     27.51302961	     -7.32742444	      0.04246850	     11.66733878	      0.20363348	      5.65491286	      1.07154374	     -7.49999987	     23.51946036	      4.04077368	     -3.81926396	     13.65393255	      0.23830608	     11.95259883	     -1.55695890	     -7.49999987	      0.31375186	     -4.09977923	      3.13991053	     21.64049994	    -21.54454010	     61.88284929	    147.61443039	     95.17150614	      8.77181843	    -29.51188715	     49.40218090	    142.03966665	     96.57751878
      2.95000000	    -13.72835518	      0.92070430	     -8.74391729	      0.29226692	      0.93870952	     -0.11138074	     28.24391422	     -7.78950772	      0.10076817	     11.93509363	      0.20830668	      5.98764630	      1.12678661	     -7.49999987	     24.11347641	      4.27417965	     -3.45895042	     14.70513416	      0.25665301	     12.68391041	     -1.91477427	     -7.49999987	     -0.22562337	     -4.21173845	      3.39236900	     22.02633640	    -21.85868757	     61.41636801	    147.60789748	     95.23896980	      8.85615874	    -29.43988394	     48.92286111	    142.05828150	     96.60311193
      2.96666670	    -14.49219744	      1.22844156	     -8.75487525	      0.27884793	      0.93308627	     -0.11620011	     30.39504962	     -8.35599071	     -0.15346490	     12.68439708	      0.22138449	      6.56394188	      1.78825171	     -7.49999987	     26.24160587	      4.55018319	     -2.77656894	     16.40229175	      0.28627400	     13.41689577	     -2.71661599	     -7.49999987	      0.26153703	     -4.27530089	      3.48438869	     22.95090270	    -22.35549347	     60.59021664	    147.66912107	     95.85031212	      8.45308055	    -29.59929580	     48.10552393	    141.91932552	     96.95909817
      2.98333330	    -14.68048610	      1.40301086	     -8.74640084	      0.27866771	      0.93269073	     -0.11544471	     31.49414640	     -8.77459905	     -0.30113197	     13.12192071	      0.22902072	      7.00456431	      2.25084069	     -7.49999987	     27.46051763	      4.76844339	     -2.05721757	     17.73439294	      0.30952355	     13.95373149	     -3.44497693	     -7.49999987	      0.00490050	     -4.27101658	      3.47354390	     24.06521392	    -22.81219997	     60.37944001	    147.59425374	     99.46494083	      8.12263054	    -29.07325384	     46.47392063	    141.06950935	     99.16644381
      3.00000000	    -15.13000884	      1.80310883	     -8.79228678	      0.26462522	      0.93182738	     -0.11981054	     33.55998067	     -9.42675450	     -0.43800040	     14.06968875	      0.24556239	      7.42363516	      2.83267423	     -7.49999987	     29.48186518	      5.15709961	     -1.67934252	     19.57001957	      0.34156128	     14.64549588	     -3.88501085	     -7.49999987	     -0.34114144	     -4.46644051	      3.93175665	     25.73148724	    -23.51692645	     60.96141681	    147.66598713	     99.69053737	      9.15916698	    -28.33772503	     45.90878645	    139.85465386	     99.14019406
      3.01666670	    -15.25710132	      2.13071951	     -8.76714735	      0.26440722	      0.93124668	     -0.11901581	     34.82329968	    -10.00115855	     -0.69934069	     14.58110419	      0.25448828	      7.78416268	      3.37717497	     -7.49999987	     30.78681509	      5.56929427	     -1.22337906	     20.87852075	      0.36439893	     14.92578216	     -4.61888301	     -7.49999987	     -1.00432573	     -4.52738069	      4.59146774	     27.54880582	    -24.74420619	     62.00974525	    147.52590074	     99.85849420	     10.28775897	    -27.50484788	     45.25578088	    138.76686544	     98.99619467
      3.03333330	    -15.27686333	      2.46961544	     -8.69359216	      0.26482506	      0.92795394	     -0.11916018	     35.51108348	    -10.60634303	     -1.17983240	     14.49141679	      0.25292294	      7.96901337	      4.13244120	     -7.49999987	     31.42474994	      6.07478570	     -0.70287446	     21.47937382	      0.37488579	     15.00768477	     -5.26521757	     -7.49999987	     -1.34699780	     -4.64000218	      5.17317233	     29.42585178	    -25.83020939	     63.15939439	    147.32404213	    100.10185015	     10.90905659	    -26.74977858	     44.85653585	    138.00092192	     98.66059727
      3.05000000	    -15.22831333	      2.78846000	     -8.67116734	      0.25686166	      0.92790890	     -0.11677134	     36.11288615	    -11.05313513	     -1.22308754	     14.60165804	      0.25484701	      7.98629490	      4.41660195	     -7.49999987	     31.97744823	      6.43381510	     -0.39202760	     22.02818587	      0.38446437	     15.19391216	     -5.39065751	     -7.49999987	     -1.86867691	     -4.91347163	      5.45472763	     30.60322426	    -26.26259991	     62.82850170	    146.75539898	    100.10865830	     11.51364891	    -26.39722104	     44.51076317	    137.35787484	     98.57432392
      3.06666670	    -15.08135636	      3.08997550	     -8.73869240	      0.25613451	      0.92908457	     -0.11706477	     36.50841408	    -11.44644407	     -1.49024211	     14.68081011	      0.25622847	      8.03677553	      5.05866372	     -7.49999987	     32.22287727	      6.78032441	      0.03922380	     22.34431657	      0.38998189	     15.22073796	     -5.65133142	     -7.49999987	     -2.35162529	     -5.14705428	      5.93010577	     31.79522205	    -26.77991477	     63.07956594	    146.40695474	     97.25674720	     12.72353759	    -25.95522361	     44.65606147	    135.49632246	     95.14492447
      3.08333330	    -15.50368548	      3.50623167	     -8.97219888	      0.25750542	      0.91596778	     -0.11636831	     37.73896579	    -11.74523000	     -1.29083931	     14.95139220	      0.26095102	      8.06498702	      5.09978619	     -7.49999987	     33.25998920	      7.00625212	      0.04073333	     23.02427720	      0.40184945	     15.65276112	     -5.56687304	     -7.49999987	     -1.86993720	     -5.36940020	      6.07819834	     32.68188020	    -27.02691229	     62.83667721	    146.87496132	    101.01825454	     13.10082713	    -25.44898023	     44.16503820	    135.20275652	     97.58167888
      3.10000000	    -15.68942071	      3.84428116	     -9.23842166	      0.25760899	      0.91363428	     -0.11666926	     38.61175831	    -12.01440623	     -1.02359363	     15.24474934	      0.26607107	      8.41637815	      5.04399442	     -7.49999987	     33.90163871	      7.20897917	      0.13561200	     23.62489509	      0.41233220	     16.14343780	     -5.52889307	     -7.49999987	     -1.47232392	     -5.71738101	      6.60863503	     33.00580580	    -27.47649934	     62.25170830	    146.83520158	    100.52151308	     13.37006454	    -25.54862631	     44.60241364	    134.58143598	     97.81034533
      3.11666670	    -16.23500062	      4.39383591	     -9.44366956	      0.24449357	      0.90838167	     -0.12066697	     40.57483266	    -12.46992550	     -0.53727887	     16.36664216	      0.28565179	      8.62987898	      4.87878024	     -7.49999987	     35.55326340	      7.50331218	     -0.22074214	     24.89772804	      0.43454733	     16.72743222	     -5.40657978	     -7.49999987	     -1.36461912	     -6.05092360	      6.75521220	     34.47401278	    -28.03207800	     63.14466844	    146.74844758	    100.53162657	     14.50256463	    -25.35385199	     45.18239919	    134.85913752	     97.81258367
